<svg viewBox="0 0 800 800" xmlns="http://www.w3.org/2000/svg">
  <!-- Background -->
  <rect width="800" height="800" fill="#f8fafc"/>
  
  <!-- Outer decorative leaves -->
  <g transform="translate(400,400)">
    <!-- Top leaves cluster -->
    <ellipse cx="-80" cy="-220" rx="45" ry="90" fill="#065f46" transform="rotate(-25)" opacity="0.9"/>
    <ellipse cx="-40" cy="-240" rx="40" ry="85" fill="#047857" transform="rotate(-10)" opacity="0.9"/>
    <ellipse cx="0" cy="-250" rx="38" ry="88" fill="#059669" opacity="0.9"/>
    <ellipse cx="40" cy="-240" rx="40" ry="85" fill="#10b981" transform="rotate(10)" opacity="0.9"/>
    <ellipse cx="80" cy="-220" rx="45" ry="90" fill="#34d399" transform="rotate(25)" opacity="0.9"/>
    
    <!-- Side leaves -->
    <ellipse cx="-200" cy="-100" rx="50" ry="80" fill="#065f46" transform="rotate(-55)" opacity="0.8"/>
    <ellipse cx="-180" cy="-50" rx="45" ry="75" fill="#047857" transform="rotate(-40)" opacity="0.8"/>
    <ellipse cx="180" cy="-50" rx="45" ry="75" fill="#10b981" transform="rotate(40)" opacity="0.8"/>
    <ellipse cx="200" cy="-100" rx="50" ry="80" fill="#34d399" transform="rotate(55)" opacity="0.8"/>
    
    <!-- Bottom leaves cluster -->
    <ellipse cx="-120" cy="180" rx="55" ry="95" fill="#84cc16" transform="rotate(-70)" opacity="0.9"/>
    <ellipse cx="-60" cy="200" rx="50" ry="90" fill="#a3e635" transform="rotate(-45)" opacity="0.9"/>
    <ellipse cx="0" cy="220" rx="48" ry="92" fill="#bef264" opacity="0.9"/>
    <ellipse cx="60" cy="200" rx="50" ry="90" fill="#d9f99d" transform="rotate(45)" opacity="0.9"/>
    <ellipse cx="120" cy="180" rx="55" ry="95" fill="#ecfccb" transform="rotate(70)" opacity="0.9"/>
    
    <!-- Additional accent leaves -->
    <ellipse cx="-150" cy="0" rx="35" ry="60" fill="#6ee7b7" transform="rotate(-90)" opacity="0.7"/>
    <ellipse cx="150" cy="0" rx="35" ry="60" fill="#a7f3d0" transform="rotate(90)" opacity="0.7"/>
    <ellipse cx="-100" cy="-150" rx="30" ry="55" fill="#d1fae5" transform="rotate(-120)" opacity="0.6"/>
    <ellipse cx="100" cy="-150" rx="30" ry="55" fill="#f0fdf4" transform="rotate(120)" opacity="0.6"/>
    
    <!-- Small decorative leaves -->
    <ellipse cx="-220" cy="50" rx="25" ry="45" fill="#16a34a" transform="rotate(-30)" opacity="0.6"/>
    <ellipse cx="220" cy="50" rx="25" ry="45" fill="#22c55e" transform="rotate(30)" opacity="0.6"/>
    <ellipse cx="-50" cy="150" rx="20" ry="35" fill="#4ade80" transform="rotate(-15)" opacity="0.5"/>
    <ellipse cx="50" cy="150" rx="20" ry="35" fill="#65a30d" transform="rotate(15)" opacity="0.5"/>
  </g>
  
  <!-- Central white circle for text -->
  <circle cx="400" cy="400" r="140" fill="white" stroke="#e5e7eb" stroke-width="3" opacity="0.95"/>
  
  <!-- Text -->
  <text x="400" y="380" text-anchor="middle" font-family="Arial, sans-serif" font-size="52" font-weight="bold" fill="#1f2937">DAIRY</text>
  <text x="400" y="430" text-anchor="middle" font-family="Arial, sans-serif" font-size="52" font-weight="bold" fill="#1f2937">LICIOUS</text>
  
  <!-- Decorative elements -->
  <g transform="translate(400,400)">
    <!-- Small floating elements around the logo -->
    <circle cx="-280" cy="-50" r="6" fill="#84cc16" opacity="0.4"/>
    <circle cx="280" cy="-50" r="8" fill="#10b981" opacity="0.5"/>
    <circle cx="-250" cy="120" r="5" fill="#059669" opacity="0.4"/>
    <circle cx="250" cy="120" r="7" fill="#34d399" opacity="0.5"/>
    <circle cx="0" cy="-300" r="4" fill="#6ee7b7" opacity="0.3"/>
    <circle cx="0" cy="300" r="6" fill="#a7f3d0" opacity="0.4"/>
    
    <!-- Leaf vein details -->
    <path d="M0,-250 L0,-200" stroke="#034f41" stroke-width="1.5" fill="none" opacity="0.6"/>
    <path d="M-40,-240 L-20,-190" stroke="#034f41" stroke-width="1" fill="none" opacity="0.5"/>
    <path d="M40,-240 L20,-190" stroke="#034f41" stroke-width="1" fill="none" opacity="0.5"/>
    <path d="M-180,-50 L-140,-20" stroke="#034f41" stroke-width="1" fill="none" opacity="0.5"/>
    <path d="M180,-50 L140,-20" stroke="#034f41" stroke-width="1" fill="none" opacity="0.5"/>
  </g>
</svg>
    
    <!-- Bottom left leaf -->
    <path d="M-140,80 Q-180,100 -160,140 Q-140,160 -120,140 Q-100,120 -80,140 Q-60,160 -40,140 Q-20,120 -60,100 Q-100,80 -140,80" fill="#84d982"/>
    
    <!-- Left leaf -->
    <path d="M-180,-20 Q-220,0 -200,40 Q-180,60 -160,40 Q-140,20 -160,0 Q-180,-20 -180,-20" fill="#a3e395"/>
    
    <!-- Top left leaf -->
    <path d="M-60,-160 Q-100,-140 -120,-100 Q-140,-60 -100,-40 Q-80,-20 -60,-40 Q-40,-60 -20,-80 Q0,-120 -40,-140 Q-60,-160 -60,-160" fill="#c2eda8"/>
  </g>
  
  <!-- Text -->
  <text x="400" y="360" text-anchor="middle" font-family="Arial, sans-serif" font-size="120" font-weight="bold" fill="#1f2937">DAIRY</text>
  <text x="400" y="480" text-anchor="middle" font-family="Arial, sans-serif" font-size="120" font-weight="bold" fill="#1f2937">LICIOUS</text>
  
  <!-- Small decorative elements -->
  <g transform="translate(400,400)">
    <circle cx="-160" cy="-80" r="4" fill="#22c55e"/>
    <circle cx="160" cy="-80" r="4" fill="#22c55e"/>
    <circle cx="-80" cy="160" r="4" fill="#22c55e"/>
    <circle cx="80" cy="160" r="4" fill="#22c55e"/>
    
    <!-- Small leaves -->
    <path d="M-200,-40 Q-190,-50 -180,-40 Q-190,-30 -200,-40" fill="#16a34a"/>
    <path d="M200,-40 Q190,-50 180,-40 Q190,-30 200,-40" fill="#16a34a"/>
    <path d="M-40,200 Q-50,190 -40,180 Q-30,190 -40,200" fill="#16a34a"/>
    <path d="M40,200 Q50,190 40,180 Q30,190 40,200" fill="#16a34a"/>
  </g>
</svg>
